<?xml version="1.0" encoding="utf-8"?>
<!-- Generator: Adobe Illustrator 20.1.0, SVG Export Plug-In . SVG Version: 6.00 Build 0)  -->
<svg version="1.1" id="Layer_1" xmlns="http://www.w3.org/2000/svg" xmlns:xlink="http://www.w3.org/1999/xlink" x="0px" y="0px"
	 viewBox="0 0 227 102.9" style="enable-background:new 0 0 227 102.9;" xml:space="preserve">
<style type="text/css">
	.st0{fill:#2B2C38;}
</style>
<g>
	<path class="st0" d="M131.1,30.2h-2.6v16.4h2.6c0.5,0,1-0.2,1.4-0.6c0.4-0.4,0.6-0.8,0.6-1.4V32.1c0-0.5-0.2-1-0.6-1.4
		C132.2,30.4,131.7,30.2,131.1,30.2z"/>
	<path class="st0" d="M43.2,30.2h-2.6v39.6h2.6c0.5,0,1-0.2,1.4-0.6c0.4-0.4,0.6-0.8,0.6-1.4V32.1c0-0.5-0.2-1-0.6-1.4
		C44.2,30.4,43.8,30.2,43.2,30.2z"/>
	<path class="st0" d="M217.7,49.4c-2.8,0-4.2-1.2-4.2-7.6v-21c0-5.5-3.9-10.3-9.4-11.4c-0.1,0-0.3,0-0.4,0H23.2c-0.1,0-0.3,0-0.4,0
		c-5.4,1.1-9.4,5.9-9.4,11.4v21c0,6.5-1.4,7.6-4.2,7.6c-1.1,0-2,0.9-2,2s0.9,2,2,2c2.8,0,4.2,1.2,4.2,7.6v21
		c0,5.5,3.9,10.3,9.4,11.4c0.1,0,0.3,0,0.4,0h180.6c0.1,0,0.3,0,0.4,0c5.4-1.1,9.4-5.9,9.4-11.4v-21c0-6.5,1.4-7.6,4.2-7.6
		c1.1,0,2-0.9,2-2S218.8,49.4,217.7,49.4z M54.7,68.3c0,1.4-0.3,2.7-0.8,4c-0.5,1.3-1.3,2.3-2.2,3.3c-0.9,0.9-2,1.7-3.3,2.2
		c-1.3,0.5-2.6,0.8-4,0.8H32.2c-0.8,0-1.1-0.4-1.1-1.1V22.6c0-0.8,0.4-1.1,1.1-1.1h12.2c1.4,0,2.7,0.3,4,0.8
		c1.2,0.5,2.3,1.3,3.3,2.2c0.9,0.9,1.7,2,2.2,3.3c0.5,1.3,0.8,2.6,0.8,4V68.3z M81.2,29.9c0,0.8-0.4,1.1-1.1,1.1h-9.3v11.7h8.1
		c0.8,0,1.1,0.4,1.1,1.1v7.3c0,0.8-0.4,1.1-1.1,1.1h-8.1V69h9.3c0.8,0,1.1,0.4,1.1,1.1v7.3c0,0.8-0.4,1.1-1.1,1.1H62.4
		c-0.8,0-1.1-0.4-1.1-1.1V22.6c0-0.8,0.4-1.1,1.1-1.1h17.7c0.8,0,1.1,0.4,1.1,1.1V29.9z M104.8,77.4c-0.1,0.8-0.5,1.1-1.3,1.1h-7.2
		c-0.8,0-1.2-0.4-1.3-1.1l-9.6-54.8c-0.1-0.8,0.2-1.1,1-1.1h8.8c0.7,0,1.1,0.4,1.2,1.1l3.3,34.6h0.3l3.3-34.6
		c0.1-0.8,0.5-1.1,1.2-1.1h8.8c0.8,0,1.1,0.4,1,1.1L104.8,77.4z M143.5,78.5H136c-0.3,0-0.6-0.1-0.9-0.3c-0.3-0.2-0.5-0.5-0.6-0.8
		l-6-20v21.1l-0.1-0.8c-0.1,0.5-0.5,0.8-1.1,0.8h-7.3c-0.8,0-1.1-0.4-1.1-1.1V22.6c0-0.8,0.4-1.1,1.1-1.1h12.2c1.4,0,2.7,0.3,4,0.8
		c1.2,0.5,2.3,1.3,3.3,2.2c0.9,0.9,1.7,2,2.2,3.3c0.5,1.3,0.8,2.6,0.8,4V45c0,2-0.5,3.8-1.5,5.4c-1,1.6-2.4,2.8-4.1,3.7l7.3,23.2
		C144.4,78.2,144.2,78.5,143.5,78.5z M169.6,29.9c0,0.8-0.4,1.1-1.1,1.1h-9.3v11.7h8.1c0.8,0,1.1,0.4,1.1,1.1v7.3
		c0,0.8-0.4,1.1-1.1,1.1h-8.1V69h9.3c0.8,0,1.1,0.4,1.1,1.1v7.3c0,0.8-0.4,1.1-1.1,1.1h-17.7c-0.8,0-1.1-0.4-1.1-1.1V22.6
		c0-0.8,0.4-1.1,1.1-1.1h17.7c0.8,0,1.1,0.4,1.1,1.1V29.9z M197.8,77.4c0,0.8-0.4,1.1-1.1,1.1h-11h-0.2h-0.1h-7.3
		c-0.8,0-1.1-0.4-1.1-1.1V22.6c0-0.8,0.4-1.1,1.1-1.1h7.3c0.8,0,1.1,0.4,1.1,1.1V69h10.1c0.8,0,1.1,0.4,1.1,1.1V77.4z"/>
</g>
</svg>
