<svg width="575" height="181" viewBox="0 0 575 181" fill="none" xmlns="http://www.w3.org/2000/svg">
<g clip-path="url(#clip0_3985_24643)">
<path d="M84.0586 51.6816C80.2378 47.5537 75.6402 44.3015 70.2658 41.9248C64.8914 39.5482 59.0552 38.3807 52.7571 38.3807C49.3141 38.3807 45.9132 38.8602 42.5542 39.84C39.1742 40.8199 35.8572 42.4877 32.5822 44.8227L35.5843 0H9.55212L0 141.806H26.0321L29.937 83.8288C30.1259 81.1811 30.7977 78.6586 31.9734 76.3028C33.149 73.9261 34.6815 71.8622 36.592 70.0901C38.4814 68.3181 40.6857 66.9421 43.163 65.9206C45.6402 64.9199 48.2644 64.3987 50.9936 64.3987C53.7228 64.3987 56.1371 64.899 58.4254 65.9206C60.7137 66.9213 62.6871 68.3181 64.3456 70.0901C66.0041 71.8622 67.2637 73.9261 68.1245 76.3028C68.9852 78.6794 69.3211 81.1811 69.1531 83.8288L65.0594 141.806H91.3015L95.2063 83.8288C95.6262 77.5745 94.8284 71.6954 92.813 66.1708C90.7976 60.6461 87.8795 55.8094 84.0586 51.6816Z" fill="white"/>
<path d="M191.544 51.2032C187.156 46.4916 181.887 42.8641 175.736 40.2999C169.585 37.7356 162.888 36.4639 155.624 36.4639C148.36 36.4639 141.579 37.819 135.071 40.5292C128.563 43.2394 122.769 46.992 117.709 51.7453C112.65 56.5194 108.535 62.19 105.365 68.757C102.195 75.3241 100.348 82.454 99.8228 90.1677C99.319 97.7354 100.201 104.803 102.489 111.328C104.777 117.874 108.136 123.524 112.545 128.277C116.954 133.051 122.244 136.804 128.374 139.556C134.525 142.308 141.18 143.684 148.36 143.684C155.54 143.684 162.489 142.308 168.997 139.556C175.505 136.804 181.278 133.051 186.317 128.277C191.334 123.503 195.449 117.853 198.619 111.328C201.789 104.782 203.637 97.7354 204.14 90.1677C204.686 82.0787 203.804 74.7403 201.516 68.1524C199.228 61.5646 195.89 55.894 191.502 51.2032H191.544ZM177.94 90.1885C177.667 94.2955 176.723 98.0481 175.127 101.467C173.532 104.886 171.474 107.784 168.955 110.181C166.436 112.579 163.56 114.434 160.327 115.769C157.094 117.103 153.693 117.749 150.124 117.749C146.555 117.749 143.259 117.04 140.194 115.623C137.15 114.205 134.546 112.266 132.384 109.806C130.222 107.346 128.605 104.448 127.492 101.092C126.38 97.7562 125.96 94.1079 126.233 90.2094C126.506 86.0398 127.43 82.2664 129.004 78.889C130.558 75.5117 132.594 72.6139 135.071 70.1747C137.548 67.7355 140.425 65.88 143.658 64.5875C146.891 63.2949 150.292 62.6486 153.861 62.6486C157.429 62.6486 160.725 63.2949 163.791 64.5875C166.856 65.88 169.48 67.7563 171.663 70.1747C173.846 72.6139 175.526 75.5117 176.66 78.889C177.793 82.2664 178.234 86.0398 177.94 90.2094V90.1885Z" fill="white"/>
<path d="M300.757 51.2032C296.369 46.4916 291.1 42.8641 284.949 40.2999C278.798 37.7356 272.101 36.4639 264.837 36.4639C257.573 36.4639 250.792 37.819 244.284 40.5292C237.776 43.2394 231.982 46.992 226.922 51.7453C221.863 56.5194 217.748 62.19 214.578 68.757C211.408 75.3241 209.561 82.454 209.036 90.1677C208.532 97.7354 209.414 104.803 211.702 111.328C213.99 117.874 217.349 123.524 221.758 128.277C226.167 133.051 231.457 136.804 237.587 139.556C243.738 142.308 250.393 143.684 257.573 143.684C264.753 143.684 271.702 142.308 278.21 139.556C284.718 136.804 290.491 133.051 295.509 128.277C300.526 123.503 304.641 117.853 307.811 111.328C310.981 104.782 312.828 97.7354 313.332 90.1677C313.878 82.0787 312.996 74.7403 310.708 68.1524C308.42 61.5646 305.082 55.894 300.694 51.2032H300.757ZM287.153 90.1885C286.88 94.2955 285.936 98.0481 284.34 101.467C282.744 104.886 280.687 107.784 278.168 110.181C275.649 112.579 272.772 114.434 269.539 115.769C266.306 117.103 262.905 117.749 259.337 117.749C255.768 117.749 252.472 117.04 249.407 115.623C246.362 114.205 243.759 112.266 241.597 109.806C239.435 107.346 237.818 104.448 236.705 101.092C235.593 97.7562 235.173 94.1079 235.425 90.2094C235.698 86.0398 236.621 82.2664 238.196 78.889C239.749 75.5117 241.786 72.6139 244.263 70.1747C246.74 67.7355 249.616 65.88 252.85 64.5875C256.083 63.2949 259.484 62.6486 263.052 62.6486C266.621 62.6486 269.917 63.2949 272.982 64.5875C276.048 65.88 278.672 67.7563 280.855 70.1747C283.038 72.6139 284.718 75.5117 285.852 78.889C286.985 82.2664 287.426 86.0398 287.132 90.2094L287.153 90.1885Z" fill="white"/>
<path d="M411.832 51.3477C407.402 46.6778 402.112 43.0503 395.961 40.5069C389.81 37.9426 383.134 36.6709 375.954 36.6709C372.637 36.6709 369.341 37.0879 366.045 37.9009C362.749 38.714 359.537 39.8398 356.43 41.2574C353.323 42.6751 350.279 44.3637 347.36 46.3234C344.421 48.2831 341.713 50.3679 339.215 52.5777L329.642 40.361H323.344L313.896 180.458H340.118L343.183 134.989C345.072 136.136 347.045 137.24 349.103 138.304C351.16 139.388 353.26 140.347 355.401 141.202C357.542 142.056 359.726 142.723 361.951 143.245C364.176 143.745 366.423 143.995 368.711 143.995C375.891 143.995 382.735 142.765 389.222 140.305C395.709 137.845 401.482 134.28 406.542 129.652C411.601 125.003 415.716 119.353 418.886 112.703C422.077 106.031 423.945 98.547 424.512 90.2079C425.058 82.1815 424.176 74.8848 421.888 68.2761C419.6 61.6882 416.241 56.0385 411.811 51.3686L411.832 51.3477ZM398.396 90.1871C398.123 94.2941 397.178 98.0467 395.583 101.466C393.987 104.885 391.93 107.783 389.411 110.18C386.891 112.578 383.994 114.433 380.74 115.767C377.465 117.102 374.064 117.748 370.495 117.748C366.926 117.748 363.63 117.081 360.565 115.767C357.5 114.433 354.876 112.578 352.693 110.18C350.509 107.783 348.83 104.885 347.696 101.466C346.563 98.0467 346.122 94.2941 346.416 90.1871C346.71 85.8924 347.654 82.0356 349.25 78.6374C350.845 75.2184 352.903 72.3414 355.422 69.9648C357.941 67.5881 360.796 65.7744 364.029 64.5235C367.262 63.2518 370.663 62.6263 374.211 62.6263C377.759 62.6263 381.097 63.2518 384.183 64.5235C387.269 65.7952 389.915 67.609 392.119 69.9648C394.302 72.3414 395.982 75.2184 397.115 78.6374C398.249 82.0564 398.669 85.8924 398.396 90.1871Z" fill="white"/>
<path d="M494.61 96.4206C494.421 99.1308 493.749 101.779 492.552 104.322C491.356 106.886 489.802 109.179 487.892 111.181C485.981 113.203 483.777 114.829 481.321 116.059C478.844 117.289 476.282 117.915 473.616 117.915C470.95 117.915 468.347 117.477 466.016 116.58C463.686 115.705 461.692 114.35 460.033 112.557C458.375 110.764 457.115 108.512 456.233 105.823C455.373 103.134 455.058 100.006 455.289 96.3998L459.068 40.3193H433.119L429.341 96.3998C428.858 103.655 429.592 110.222 431.587 116.059C433.581 121.897 436.52 126.858 440.404 130.924C444.288 134.989 448.928 138.137 454.323 140.347C459.697 142.557 465.555 143.662 471.832 143.662C474.813 143.662 477.836 143.057 480.88 141.869C483.924 140.68 486.905 139.471 489.844 138.262C488.732 140.597 487.346 142.765 485.688 144.746C484.029 146.726 482.14 148.457 480.04 149.916C477.941 151.375 475.695 152.501 473.28 153.335C470.866 154.148 468.389 154.565 465.849 154.565L451.363 154.377L449.599 180.437L462.951 180.625C470.131 180.625 476.975 179.27 483.441 176.559C489.928 173.849 495.681 170.159 500.74 165.468C505.799 160.798 509.893 155.336 513.042 149.082C516.191 142.828 518.039 136.136 518.585 129.006L524.568 40.3402H498.347L494.568 96.4206H494.61Z" fill="white"/>
<path d="M574.136 15.6358C573.8 13.9054 573.212 12.2376 572.415 10.6115C571.596 8.98538 570.567 7.50519 569.287 6.15009C568.006 4.79498 566.6 3.6692 565.025 2.7519C563.471 1.85545 561.813 1.16747 560.112 0.708823C558.391 0.229325 556.607 0 554.78 0C552.954 0 551.148 0.229325 549.364 0.667128C547.579 1.10493 545.837 1.79291 544.157 2.71021C542.457 3.62751 540.882 4.75329 539.434 6.10839C537.964 7.46349 536.725 8.94368 535.718 10.5698C534.689 12.1751 533.891 13.8638 533.325 15.615C532.758 17.3662 532.401 19.1382 532.275 20.952C532.149 22.7657 532.275 24.5378 532.59 26.289C532.926 28.0402 533.492 29.708 534.311 31.3342C535.109 32.9394 536.159 34.4405 537.439 35.7956C538.72 37.1507 540.147 38.2973 541.701 39.1938C543.276 40.1111 544.913 40.7782 546.635 41.2368C548.356 41.6746 550.119 41.904 551.946 41.904C553.772 41.904 555.578 41.6746 557.362 41.216C559.147 40.7573 560.868 40.0694 562.569 39.1729C564.248 38.2765 565.823 37.1298 567.292 35.7747C568.762 34.4196 570 32.9186 571.029 31.3133C572.058 29.6872 572.856 28.0194 573.422 26.289C573.989 24.5586 574.346 22.7866 574.472 20.9728C574.598 19.1591 574.472 17.387 574.136 15.6567V15.6358ZM565.067 25.7887C564.332 27.3731 563.283 28.8116 561.939 30.0625C560.595 31.3133 559.105 32.2515 557.467 32.8769C555.83 33.5023 554.192 33.815 552.534 33.815C550.875 33.815 549.259 33.5023 547.705 32.8769C546.152 32.2515 544.766 31.2925 543.59 30.0416C542.394 28.7699 541.554 27.3522 541.029 25.7678C540.504 24.1834 540.294 22.5573 540.42 20.9103C540.525 19.2633 540.945 17.6372 541.68 16.0736C542.415 14.4892 543.443 13.0715 544.787 11.8207C546.131 10.5698 547.621 9.63166 549.28 8.98538C550.917 8.35995 552.576 8.04723 554.234 8.04723C555.893 8.04723 557.488 8.35995 559.042 9.00623C560.595 9.63166 561.96 10.5698 563.157 11.8415C564.332 13.0924 565.193 14.51 565.718 16.1153C566.243 17.6997 566.453 19.3259 566.348 20.952C566.243 22.599 565.802 24.2042 565.067 25.7887Z" fill="#EA3466"/>
</g>
<defs>
<clipPath id="clip0_3985_24643">
<rect width="574.513" height="180.646" fill="white"/>
</clipPath>
</defs>
</svg>
